<?xml version="1.0" encoding="UTF-8"?>
<svg version="1.1" xmlns="http://www.w3.org/2000/svg" width="2000" height="2000">
<path d="M0 0 C660 0 1320 0 2000 0 C2000 660 2000 1320 2000 2000 C1340 2000 680 2000 0 2000 C0 1340 0 680 0 0 Z " fill="#171717" transform="translate(0,0)"/>
<path d="M0 0 C0.79929932 -0.00286011 1.59859863 -0.00572021 2.42211914 -0.00866699 C43.74186308 -0.11265608 84.87437192 6.12408533 124.10644531 19.20361328 C126.65577378 20.05204059 129.21183402 20.87313995 131.7734375 21.68359375 C174.70415436 35.39987491 214.9920471 56.93584231 250.875 84.125 C251.4952002 84.59357422 252.11540039 85.06214844 252.75439453 85.54492188 C265.08282068 94.91332978 276.92836354 104.89248142 287.73828125 115.98828125 C289.61151123 117.86151123 291.51943968 119.56774504 293.5625 121.25 C296.76028429 123.90983927 299.37900547 126.90018127 302.06640625 130.06640625 C303.87785098 132.12824507 305.77881369 134.02876712 307.75 135.9375 C311.66320187 139.79802415 315.10297729 143.94415767 318.5390625 148.23046875 C320.85116959 151.09547101 323.23299522 153.88908665 325.625 156.6875 C354.50894745 191.41064054 375.86619655 232.087946 391.875 274.125 C392.37193359 275.42171631 392.37193359 275.42171631 392.87890625 276.74462891 C404.2285064 306.67979291 411.38344353 339.02100173 414.52661133 370.84130859 C414.78094218 373.23847046 415.07238586 375.63177811 415.38549805 378.02197266 C417.03039844 390.76942313 417.23290246 403.40826705 417.1875 416.25 C417.18534485 417.34827118 417.1831897 418.44654236 417.18096924 419.57809448 C417.08754147 449.35211933 413.84377551 477.97655235 407.875 507.125 C407.67680664 508.10968262 407.47861328 509.09436523 407.27441406 510.10888672 C388.91455249 599.53548521 335.69423731 682.02148138 227.8125 768.5078125 C197.4578775 788.38086646 165.01172621 803.05287394 130.875 815.125 C130.04210449 815.42631836 129.20920898 815.72763672 128.35107422 816.03808594 C109.43819887 822.87814181 89.75574005 827.23048612 69.875 830.125 C70.68799561 830.17922119 71.50099121 830.23344238 72.33862305 830.28930664 C92.79516052 831.70675199 113.10634873 833.89309115 133.4375 836.5625 C134.56022308 836.7075296 135.68294617 836.8525592 136.83969116 837.00198364 C150.00740397 838.71186532 162.96215688 840.79839031 175.91976929 843.69857788 C178.64148645 844.29216532 181.37577391 844.7992815 184.1171875 845.29296875 C211.06640589 850.15254797 237.85143711 856.57959911 263.875 865.125 C265.21653754 865.56149485 266.55817851 865.99767189 267.89990234 866.43359375 C297.18584635 875.96405942 325.8745248 886.21557576 353.875 899.125 C354.81569336 899.55280762 355.75638672 899.98061523 356.72558594 900.42138672 C370.90472124 906.87599129 384.42239269 914.27863554 397.875 922.125 C398.7294873 922.61726074 399.58397461 923.10952148 400.46435547 923.61669922 C419.70708933 934.71292908 438.10828098 947.18437976 455.04833984 961.57470703 C456.86156703 963.11359939 458.68960535 964.63337283 460.51953125 966.15234375 C474.81486889 978.14769838 488.52040764 991.28413621 499.875 1006.125 C501.20749071 1007.75069102 502.54083316 1009.37568426 503.875 1011 C525.288296 1037.98835532 540.05681904 1069.11867188 545.875 1103.125 C546.04505428 1104.10862141 546.21510857 1105.09224281 546.39031601 1106.10567093 C547.07322122 1110.95746399 547.01978447 1115.79612814 547.01544189 1120.68743896 C547.01989858 1122.26510335 547.01989858 1122.26510335 547.0244453 1123.87463975 C547.03310449 1127.39267159 547.03463819 1130.91066929 547.03613281 1134.42871094 C547.0407629 1136.95373609 547.04578782 1139.47876054 547.05117798 1142.00378418 C547.06428442 1148.85926178 547.07078043 1155.71472819 547.07518864 1162.57021618 C547.07795642 1166.85473694 547.0821947 1171.13925547 547.08669281 1175.42377472 C547.09888014 1187.2981998 547.10918107 1199.17262309 547.1125679 1211.04705429 C547.11278747 1211.80618496 547.11300703 1212.56531564 547.11323325 1213.34745027 C547.11345153 1214.1083401 547.11366981 1214.86922993 547.1138947 1215.65317702 C547.11433816 1217.19489145 547.11478472 1218.73660588 547.11523438 1220.27832031 C547.1154558 1221.043055 547.11567723 1221.80778968 547.11590537 1222.59569815 C547.11985254 1234.98418031 547.13730646 1247.37260363 547.1605939 1259.76106307 C547.18433746 1272.49544987 547.19677109 1285.22980718 547.19793582 1297.96421647 C547.1988508 1305.10796966 547.20455856 1312.25164612 547.22275543 1319.39537811 C547.23981513 1326.1160664 547.24138667 1332.83658451 547.23261642 1339.55729675 C547.23184663 1342.01989888 547.23618117 1344.48250887 547.24607468 1346.94509125 C547.25881682 1350.3151085 547.25290465 1353.68461228 547.24249268 1357.05462646 C547.25054908 1358.02167503 547.25860548 1358.9887236 547.26690602 1359.98507667 C547.1197233 1380.4504512 536.22417318 1401.08739385 522.875 1416.125 C521.98941406 1417.13433594 521.98941406 1417.13433594 521.0859375 1418.1640625 C505.95293784 1434.32739406 482.77128411 1445.40797335 460.56454407 1446.2506165 C459.40929656 1446.250908 458.25404904 1446.2511995 457.06379402 1446.25149983 C456.41133943 1446.25302638 455.75888485 1446.25455293 455.08665891 1446.25612573 C452.90489648 1446.2600161 450.72320369 1446.25681351 448.54144096 1446.25363445 C446.95287357 1446.25498142 445.3643065 1446.25676549 443.77574003 1446.25894669 C439.39756374 1446.26368058 435.01940823 1446.26217375 430.64123092 1446.25966892 C425.88285753 1446.25803759 421.12448861 1446.26217522 416.36611664 1446.26557809 C408.02199671 1446.27073634 399.67788258 1446.27214856 391.33376122 1446.27112198 C378.92561549 1446.26959912 366.5174762 1446.27375422 354.10933172 1446.2789966 C330.65996419 1446.28867679 307.21059885 1446.2914811 283.76122956 1446.29205366 C265.65414457 1446.2925129 247.54706045 1446.29456962 229.43997574 1446.29775429 C224.23114367 1446.29865181 219.02231161 1446.29954162 213.81347954 1446.30042917 C212.51860868 1446.30065021 211.22373782 1446.30087126 209.88962845 1446.30109901 C173.45773955 1446.30725485 137.02585113 1446.3112053 100.59396172 1446.31075573 C99.20599482 1446.31073995 97.81802792 1446.31072422 96.43006102 1446.31070852 C90.16350596 1446.31063514 83.89695089 1446.31054697 77.63039583 1446.31045464 C74.83598165 1446.31041351 72.04156746 1446.31037337 69.24715328 1446.31033332 C67.84849821 1446.31031293 66.44984315 1446.31029191 65.05118808 1446.31027026 C20.8283928 1446.30959008 -23.39439447 1446.31690609 -67.6171875 1446.33081055 C-78.7582251 1446.33431159 -89.89926271 1446.33778106 -101.04030037 1446.34107494 C-102.06930691 1446.34137925 -102.06930691 1446.34137925 -103.11910147 1446.34168971 C-124.26432662 1446.34790525 -145.40955112 1446.35167038 -166.55477715 1446.35293293 C-167.550682 1446.35299286 -167.550682 1446.35299286 -168.56670615 1446.35305399 C-183.79611296 1446.35394558 -199.02551973 1446.35413701 -214.25492656 1446.35384732 C-219.46564476 1446.35377269 -224.67636295 1446.35372399 -229.88708115 1446.35369301 C-231.17012594 1446.35368135 -232.45317074 1446.3536697 -233.77509568 1446.35365769 C-254.43582813 1446.3536269 -275.09655384 1446.36001681 -295.75728429 1446.36862527 C-316.51746274 1446.37709634 -337.2776313 1446.37809599 -358.03781052 1446.37151595 C-370.37491764 1446.36781661 -382.71199472 1446.36966414 -395.04909867 1446.37945829 C-403.28901269 1446.38544768 -411.52890491 1446.38417442 -419.76881792 1446.37698779 C-424.46431195 1446.37309749 -429.15974776 1446.37235599 -433.85523774 1446.38044515 C-438.13098467 1446.38774669 -442.40662512 1446.38576084 -446.68236738 1446.37652128 C-448.21556667 1446.37480683 -449.74877439 1446.37640578 -451.28196506 1446.38182249 C-479.82425936 1446.47586825 -503.3360868 1437.44834724 -524 1417.625 C-539.30825727 1401.6196454 -549.46380369 1379.59011801 -549.39242554 1357.38934326 C-549.39695665 1356.34291381 -549.40148776 1355.29648436 -549.40615618 1354.21834493 C-549.41876419 1350.72982763 -549.41718208 1347.24146718 -549.41552734 1343.75292969 C-549.42151512 1341.24383342 -549.42832124 1338.73473899 -549.43588257 1336.22564697 C-549.45169937 1330.12574757 -549.45799029 1324.02590508 -549.45910732 1317.92598709 C-549.46006056 1312.95927118 -549.46418457 1307.99256792 -549.47050858 1303.02585602 C-549.48811489 1288.90831952 -549.49734926 1274.79081334 -549.49584763 1260.67326578 C-549.49576772 1259.91322675 -549.4956878 1259.15318771 -549.49560547 1258.37011719 C-549.49552371 1257.60913661 -549.49544195 1256.84815603 -549.49535771 1256.06411543 C-549.49454662 1243.76008876 -549.51364109 1231.45618504 -549.5418822 1219.15219387 C-549.57072847 1206.48322983 -549.58441584 1193.81432547 -549.58269465 1181.14532781 C-549.58203443 1174.04709636 -549.58736274 1166.94899354 -549.60905075 1159.85079193 C-549.62935566 1153.16283088 -549.62846993 1146.47518397 -549.61401749 1139.7871933 C-549.61194373 1137.34814048 -549.61654344 1134.90907021 -549.6287384 1132.470047 C-549.69842021 1117.55320624 -548.58803219 1103.65207221 -545.125 1089.125 C-544.93541678 1088.32281209 -544.74583356 1087.52062419 -544.5505054 1086.69412756 C-536.69340221 1053.88132597 -518.6399396 1023.96480986 -496.125 999.125 C-495.23522014 998.12540656 -494.34588703 997.12541524 -493.45703125 996.125 C-483.59222056 985.16733731 -473.37451675 974.34941788 -461.7734375 965.21484375 C-458.97204795 963.00430775 -456.27310268 960.69572147 -453.5625 958.375 C-387.9760398 903.7196165 -303.40278408 872.87667675 -72.125 830.125 C-73.218125 829.97804688 -74.31125 829.83109375 -75.4375 829.6796875 C-145.73904366 819.71836866 -214.08205728 785.46575783 -268.125 740.125 C-268.71877441 739.63032227 -269.31254883 739.13564453 -269.92431641 738.62597656 C-295.58319868 717.20900039 -318.48968264 693.17469501 -338.125 666.125 C-338.8675 665.10599609 -338.8675 665.10599609 -339.625 664.06640625 C-363.81353731 630.74417646 -382.37159675 594.7183851 -396.12646484 555.91796875 C-396.94009738 553.64218483 -397.77704583 551.38058231 -398.64453125 549.125 C-407.78752724 524.97588043 -412.06053746 499.00099504 -415.875 473.5625 C-415.98200226 472.85983002 -416.08900452 472.15716003 -416.19924927 471.43319702 C-418.89212354 453.60841163 -419.39503834 435.87978993 -419.4375 417.875 C-419.44142761 416.27026825 -419.44142761 416.27026825 -419.44543457 414.63311768 C-419.45057389 394.88750004 -418.04697146 375.64132375 -415.125 356.125 C-414.9595166 355.00013184 -414.7940332 353.87526367 -414.62353516 352.71630859 C-408.9992836 315.45635865 -397.59985151 279.42364514 -382.125 245.125 C-381.71411133 244.21137695 -381.30322266 243.29775391 -380.87988281 242.35644531 C-368.61970562 215.33535196 -353.12590393 189.72461027 -335.125 166.125 C-334.71185547 165.58327148 -334.29871094 165.04154297 -333.87304688 164.48339844 C-328.62156563 157.62624846 -323.25508422 150.95087859 -317.390625 144.6015625 C-315.50304244 142.5382395 -313.65883067 140.449892 -311.82421875 138.33984375 C-308.1885417 134.17422714 -304.46142567 130.10291264 -300.6875 126.0625 C-300.07068359 125.39412109 -299.45386719 124.72574219 -298.81835938 124.03710938 C-295.05074372 120.00289865 -291.14409493 116.27629732 -286.93261719 112.70678711 C-285.13139564 111.13059661 -283.46874148 109.47674793 -281.8125 107.75 C-277.25600933 103.13193513 -272.19507275 99.16036403 -267.125 95.125 C-266.60550781 94.70734375 -266.08601563 94.2896875 -265.55078125 93.859375 C-230.64400909 65.79872523 -192.11981879 42.87640556 -150.125 27.125 C-149.06369873 26.72571289 -149.06369873 26.72571289 -147.98095703 26.31835938 C-128.78468859 19.16671963 -109.12628314 13.5134343 -89.125 9.125 C-88.34189453 8.9487207 -87.55878906 8.77244141 -86.75195312 8.59082031 C-58.02059835 2.17262581 -29.33069027 0.07806 0 0 Z " fill="#FEFEFE" transform="translate(1001.125,276.875)"/>
<path d="M0 0 C-0.66 0 -1.32 0 -2 0 C-2 0.66 -2 1.32 -2 2 C-5.63 2 -9.26 2 -13 2 C-8.7920942 -0.80527053 -4.85771358 -1.68151624 0 0 Z " fill="#707070" transform="translate(1081,1106)"/>
</svg>
